<?xml version="1.0" encoding="utf-8"?>
<!-- Generator: Adobe Illustrator 19.0.0, SVG Export Plug-In . SVG Version: 6.00 Build 0)  -->
<svg version="1.1" id="Layer_1" xmlns="http://www.w3.org/2000/svg" xmlns:xlink="http://www.w3.org/1999/xlink" x="0px" y="0px"
	 viewBox="-509 321 260 80" style="enable-background:new -509 321 260 80;" xml:space="preserve">
<style type="text/css">
	.st0{fill:#1B75BB;}
	.st1{fill:#F48024;}
	.st2{fill:#FFFFFF;}
</style>
<g>
	<g>
		<g>
			<g>
				<path class="st0" d="M-479,357.4c-1-0.5-1.9-0.9-2.6-1.2l-1.7-0.8c-0.7-0.3-1.4-0.6-1.8-0.9c-0.4-0.2-0.8-0.4-1-0.6
					c-0.6-0.5-0.9-1.3-0.9-2.2c0-0.5,0.1-0.9,0.3-1.3c0.2-0.4,0.5-0.8,0.9-1.1c0.4-0.3,0.8-0.6,1.4-0.8c0.5-0.2,1.1-0.3,1.7-0.3
					c1.6,0,3.3,0.3,5.1,1l0.7,0.3l0.4-2.5l-0.4-0.2c-2-1-4.2-1.5-6.5-1.5c-2.7,0-5,0.7-6.8,2.1c-1.8,1.5-2.8,3.6-2.8,6.2
					c0,2,0.8,3.8,2.4,5.2c1,0.9,2.7,1.8,4.9,2.7c2.2,0.9,3,1.2,3.2,1.4c1,0.7,1.5,1.5,1.5,2.7c0,1.1-0.5,1.9-1.5,2.6
					c-1,0.7-2.1,1.1-3.4,1.1c-1.4,0-2.7-0.2-3.9-0.5c-0.4-0.2-0.8-0.3-1.1-0.5c-0.4-0.1-0.7-0.3-1.1-0.5l-1-0.4v2.8l0.3,0.2
					c2,1.2,4.3,1.8,6.8,1.8c2.7,0,4.8-0.5,6.4-1.3c3-1.7,4.5-4.1,4.5-7.3C-475,360.8-476.3,358.7-479,357.4z"/>
				<path class="st0" d="M-437.8,346.5c-1.3-0.9-2.8-1.3-4.6-1.3c-2.8,0-5.7,1.5-8.6,4.4c-0.6-1.2-1.5-2.3-2.7-3.1
					c-1.3-0.9-2.8-1.3-4.5-1.3c-2.5,0-5.1,1.3-7.8,3.9c0-0.7,0-1.5,0-2.4V346h-0.7c-0.5,0-1.3,0-2.2,0c-1.6,0-3.1,0-3.1,0h-0.6v25.5
					h6.7v-18.4c0.4-0.6,0.9-1.3,1.9-2.1c1.3-1,2.6-1.5,3.7-1.5c1.3,0,2.2,0.6,2.9,1.7c0.5,0.9,0.8,2.1,0.8,3.5v16.8h6.6v-0.6
					c0-13.8,0-17.2,0-18.1c0.4-0.6,0.9-1.2,1.9-1.9c1.3-0.9,2.5-1.4,3.6-1.4c1.3,0,2.2,0.6,2.9,1.7c0.5,0.9,0.7,2,0.7,3.5v16.8h6.6
					v-16.1c0-2.3-0.3-4.3-0.7-5.6C-435.5,348.5-436.5,347.4-437.8,346.5z"/>
				<path class="st0" d="M-407,368.1c-0.8,0.6-1.5,0.7-2.2,0.5c-0.6-0.2-0.9-0.9-0.9-1.9v-12.2c0-3.4-1.2-6-3.6-7.7
					c-1.7-1.3-3.8-1.9-6.1-1.9c-3.1,0-6.4,1.3-9.7,3.8l-0.2,0.2v3.2l1-0.8c2.3-1.8,4.5-2.8,6.4-2.8c1.3,0,2.4,0.3,3.3,0.9
					c1.4,0.9,2.1,2.3,2.2,4.3l-4.8,1.4c-2.4,0.8-4.3,1.7-5.8,2.7s-2.5,2-3.1,2.9c-0.7,1-1,2.4-1,3.9c0,2.1,0.7,3.9,2,5.2
					c1.4,1.5,3.4,2.2,5.8,2.2c1.9,0,3.7-0.5,5.4-1.6c0.9-0.6,1.6-1.2,2.2-1.8c0.3,0.7,0.7,1.3,1.3,1.8c1,1,2.2,1.4,3.6,1.4
					c2.1,0,4-0.7,5.6-2l0.4-0.3l-1.1-2L-407,368.1z M-418.3,367.2c-1,0.8-1.9,1.2-2.9,1.2c-1.3,0-2.3-0.5-2.9-1.5
					c-0.5-0.8-0.7-1.7-0.7-2.9c0-2.3,1-4.1,3-5.5c0.6-0.4,1.4-0.9,2.3-1.3c0.7-0.3,1.6-0.7,2.5-1v9.3
					C-417,365.9-417.3,366.4-418.3,367.2z"/>
				<path class="st0" d="M-367.7,367.1c-1,0.8-1.9,1.2-2.9,1.2c-1.8,0-4.3-0.5-4.3-5.3v-14.2h7.1V346h-7.1v-7.7l-1.1,1.2
					c-1,1.1-2.2,2.3-3.6,3.7c-1.4,1.3-3,2.8-4.8,4.4l-1.2,1.1h4.3v14.5c-0.1,3.4,0.9,5.9,2.8,7.4c1.2,1,2.7,1.5,4.6,1.5
					c2.9,0,5.5-1,7.6-3l0.3-0.3l-1.1-2.2L-367.7,367.1z"/>
				<path class="st0" d="M-390,345.1c-2.7,0-4.9,1.1-6.4,3.2c0-0.8,0-1.5,0-1.7V346h-6.6v25.5h6.7v-17.6c1.2-2.8,2.7-4.1,4.8-4.1
					c1.8,0,4.3,1.6,4.3,1.6v-6l-0.5-0.1C-388.6,345.2-389.4,345.1-390,345.1z"/>
			</g>
		</g>
		<g>
			<path class="st1" d="M-343.6,365.7c-1.4,1.6-3.6,2.5-6.5,2.5c-2.5,0-4.5-0.9-6.1-2.6c-1.6-1.8-2.5-4.3-2.5-7.2
				c0-3.2,0.9-5.7,2.7-7.4c1.6-1.5,3.5-2.2,5.8-2.2c2.6,0,4.7,0.7,6.3,2.2l0.5,0.5l1.5-1.9l-0.4-0.4c-2.6-2.8-6-4.2-10.3-4.2
				c-3.7,0-6.9,1.3-9.4,4c-2.6,2.6-3.9,5.8-3.9,9.6c0,3.9,1.2,7.1,3.7,9.7c2.5,2.6,5.6,3.9,9.2,3.9c4.3,0,8-1.5,11-4.5l0.4-0.4
				l-1.5-2.1L-343.6,365.7z"/>
			<path class="st1" d="M-268.3,349c-2.3-2.6-5.4-3.9-9.1-3.9c-2.7,0-5.1,0.9-7,2.8V346h-6.4v37.5h6.6l-0.1-14.2
				c0.7,0.7,1.4,1.3,2.1,1.7c1.4,0.7,3.1,1.1,5,1.1c3.5,0,6.5-1.3,8.7-3.9c2.3-2.6,3.4-5.9,3.4-9.9
				C-265,354.6-266.1,351.5-268.3,349z M-273.8,365.4c-1.3,2.4-2.9,3.5-4.9,3.5c-1.1,0-2.3-0.5-3.4-1.4c-1-0.9-1.7-1.8-2.3-2.9
				v-12.3c0.5-1,1.3-1.9,2.2-2.5c1.1-0.8,2.2-1.2,3.1-1.2c2.1,0,3.8,1,5,2.9c1.2,1.9,1.8,4.2,1.8,6.9
				C-272.1,360.9-272.7,363.3-273.8,365.4z"/>
			<path class="st1" d="M-297.2,348.6c-2.5-2.4-5.8-3.6-9.7-3.6c-3.4,0-6.4,1-8.7,2.8c1.3,1.4,2.3,3.1,3,4.9c0.3-0.8,0.6-1.5,1-2.2
				c1.2-2,2.7-2.9,4.7-2.9s3.5,0.9,4.7,2.9c1.3,2,1.9,4.7,1.9,8.1c0,1.7-0.2,3.2-0.5,4.6c-0.3,1.3-0.8,2.5-1.4,3.5
				c-0.6,0.9-1.3,1.6-2.1,2.1c-0.8,0.5-1.7,0.7-2.6,0.7c-1,0-1.8-0.2-2.6-0.7c-0.8-0.5-1.5-1.2-2.1-2.1c-0.6-1-1.1-2.1-1.4-3.5
				c-0.3-1.4-0.5-2.9-0.5-4.6l0,0l0,0c0-4.1-1.3-7.4-3.9-9.9c-2.5-2.4-5.8-3.6-9.7-3.6s-7.2,1.2-9.7,3.6c-2.6,2.5-3.9,5.9-3.9,10
				c0,4.1,1.3,7.4,3.9,9.9c2.6,2.5,5.8,3.7,9.7,3.7c3.4,0,6.3-1,8.7-2.8c-1.3-1.4-2.3-3-3-4.8c-0.3,0.8-0.6,1.6-1,2.2
				c-0.6,0.9-1.3,1.6-2.1,2.1c-0.8,0.5-1.7,0.7-2.6,0.7c-1,0-1.8-0.2-2.6-0.7c-0.8-0.5-1.5-1.2-2.1-2.1c-0.6-1-1.1-2.1-1.4-3.5
				c-0.3-1.4-0.5-2.9-0.5-4.6c0-3.3,0.6-6.1,1.9-8.1c1.2-2,2.7-2.9,4.7-2.9s3.5,0.9,4.7,2.9c1.3,2,1.9,4.7,1.9,8.1l0,0l0,0l0,0
				c0,4.1,1.3,7.4,3.9,9.9c2.6,2.5,5.8,3.7,9.7,3.7s7.2-1.2,9.7-3.7c2.6-2.5,3.9-5.8,3.9-9.9C-293.2,354.4-294.6,351.1-297.2,348.6z
				"/>
		</g>
	</g>
	<g>
		<path class="st2" d="M-468.1,383.5l-0.4-1h-2.5l-0.4,1h-1.1l2.1-5.4h1.2l2.1,5.4H-468.1z M-469.7,379.1l-1,2.6h2L-469.7,379.1z"/>
		<path class="st2" d="M-465.6,383.5v-5.4h2.4c1.1,0,1.8,0.8,1.8,1.7c0,0.9-0.6,1.7-1.8,1.7h-1.4v2H-465.6z M-462.4,379.8
			c0-0.5-0.4-0.9-0.9-0.9h-1.3v1.7h1.3C-462.8,380.7-462.4,380.3-462.4,379.8z"/>
		<path class="st2" d="M-459.9,383.5v-5.4h1v4.6h2.4v0.8C-456.5,383.5-459.9,383.5-459.9,383.5z"/>
		<path class="st2" d="M-454.9,383.5v-5.4h1v5.4H-454.9z"/>
		<path class="st2" d="M-448.7,383.5l-1.8-2.3l-0.5,0.6v1.7h-1v-5.4h1v2.6l2.1-2.6h1.2l-2.2,2.6l2.4,2.9h-1.2V383.5z"/>
		<path class="st2" d="M-442.3,383.5l-0.4-1h-2.5l-0.4,1.1h-1.1l2.1-5.4h1.2l2.1,5.4L-442.3,383.5z M-444,379.1l-1,2.6h2L-444,379.1
			z"/>
		<path class="st2" d="M-440.3,382.8l0.5-0.7c0.4,0.4,1,0.8,1.7,0.8c0.8,0,1.1-0.4,1.1-0.7c0-1.1-3.2-0.4-3.2-2.4
			c0-0.9,0.8-1.6,2-1.6c0.8,0,1.5,0.3,2,0.8l-0.5,0.7c-0.4-0.4-1-0.6-1.6-0.6c-0.6,0-0.9,0.3-0.9,0.7c0,1,3.2,0.4,3.2,2.4
			c0,0.9-0.6,1.7-2.1,1.7C-439.1,383.6-439.8,383.3-440.3,382.8z"/>
		<path class="st2" d="M-434.3,383.5v-5.4h1v5.4H-434.3z"/>
		<path class="st2" d="M-425.2,383.5l-1.8-2.3l-0.5,0.6v1.7h-1v-5.4h1v2.6l2.1-2.6h1.2l-2.2,2.6l2.4,2.9h-1.2V383.5z"/>
		<path class="st2" d="M-423.2,380.8c0-1.6,1.2-2.8,2.8-2.8s2.8,1.2,2.8,2.8c0,1.6-1.2,2.8-2.8,2.8
			C-422.1,383.6-423.2,382.4-423.2,380.8z M-418.6,380.8c0-1.1-0.7-2-1.8-2s-1.8,0.8-1.8,2c0,1.1,0.7,2,1.8,2
			S-418.6,381.9-418.6,380.8z"/>
		<path class="st2" d="M-415.9,383.5v-5.4h2.4c1.1,0,1.8,0.8,1.8,1.7c0,0.9-0.6,1.7-1.8,1.7h-1.5v2H-415.9z M-412.7,379.8
			c0-0.5-0.4-0.9-0.9-0.9h-1.4v1.7h1.3C-413.1,380.6-412.7,380.3-412.7,379.8z"/>
		<path class="st2" d="M-410.2,383.5v-5.4h3.7v0.8h-2.8v1.4h2.7v0.8h-2.7v1.5h2.8v0.8L-410.2,383.5z"/>
		<path class="st2" d="M-401.5,383.5l-1.2-2h-1v2h-1v-5.4h2.4c1.1,0,1.8,0.7,1.8,1.7s-0.6,1.5-1.3,1.6l1.3,2.1
			C-400.5,383.5-401.5,383.5-401.5,383.5z M-401.5,379.8c0-0.5-0.4-0.9-0.9-0.9h-1.3v1.7h1.3C-401.8,380.7-401.5,380.3-401.5,379.8z
			"/>
		<path class="st2" d="M-394.9,383.5l-0.4-1h-2.5l-0.4,1h-1.1l2.1-5.4h1.2l2.1,5.4H-394.9z M-396.5,379l-1,2.6h2L-396.5,379z"/>
		<path class="st2" d="M-392.8,382.8l0.5-0.7c0.4,0.4,1,0.8,1.7,0.8c0.8,0,1.1-0.4,1.1-0.7c0-1.1-3.2-0.4-3.2-2.4
			c0-0.9,0.8-1.6,2-1.6c0.8,0,1.5,0.3,2,0.8l-0.5,0.7c-0.4-0.4-1-0.6-1.6-0.6c-0.6,0-0.9,0.3-0.9,0.7c0,1,3.2,0.4,3.2,2.4
			c0,0.9-0.6,1.7-2.1,1.7C-391.6,383.6-392.4,383.3-392.8,382.8z"/>
		<path class="st2" d="M-386.9,383.5v-5.4h1v5.4H-386.9z"/>
		<path class="st2" d="M-381,383.5v-5.4h2.7c1,0,1.5,0.6,1.5,1.4c0,0.7-0.4,1.1-0.9,1.2c0.6,0.1,1.1,0.7,1.1,1.3
			c0,0.8-0.6,1.5-1.6,1.5H-381z M-377.8,379.6c0-0.4-0.3-0.7-0.8-0.7h-1.5v1.4h1.5C-378.1,380.3-377.8,380-377.8,379.6z
			 M-377.7,381.9c0-0.4-0.3-0.8-0.8-0.8h-1.6v1.5h1.6C-378,382.7-377.7,382.4-377.7,381.9z"/>
		<path class="st2" d="M-374.9,383.5v-5.4h3.7v0.8h-2.8v1.4h2.7v0.8h-2.7v1.5h2.8v0.8L-374.9,383.5z"/>
		<path class="st2" d="M-366.3,383.5l-1.2-2h-1v2h-1v-5.4h2.4c1.1,0,1.8,0.7,1.8,1.7s-0.6,1.5-1.3,1.6l1.3,2.1
			C-365.3,383.5-366.3,383.5-366.3,383.5z M-366.2,379.8c0-0.5-0.4-0.9-0.9-0.9h-1.3v1.7h1.3C-366.6,380.6-366.2,380.3-366.2,379.8z
			"/>
		<path class="st2" d="M-363.5,383.5v-5.4h2.7c1,0,1.5,0.6,1.5,1.4c0,0.7-0.4,1.1-0.9,1.2c0.6,0.1,1.1,0.7,1.1,1.3
			c0,0.8-0.6,1.5-1.6,1.5H-363.5z M-360.2,379.6c0-0.4-0.3-0.7-0.8-0.7h-1.5v1.4h1.5C-360.5,380.3-360.2,380-360.2,379.6z
			 M-360.1,381.9c0-0.4-0.3-0.8-0.8-0.8h-1.6v1.5h1.6C-360.4,382.7-360.1,382.4-360.1,381.9z"/>
		<path class="st2" d="M-353.6,383.5l-0.4-1.1h-2.5l-0.4,1.1h-1.1l2.1-5.4h1.2l2.1,5.4H-353.6z M-355.2,379l-1,2.6h2L-355.2,379z"/>
		<path class="st2" d="M-351.5,382.7l0.5-0.7c0.4,0.4,1,0.8,1.7,0.8c0.8,0,1.1-0.4,1.1-0.7c0-1.1-3.2-0.4-3.2-2.4
			c0-0.9,0.8-1.6,2-1.6c0.8,0,1.5,0.3,2,0.8l-0.5,0.7c-0.4-0.4-1-0.6-1.6-0.6s-0.9,0.3-0.9,0.7c0,1,3.2,0.4,3.2,2.4
			c0,0.9-0.6,1.7-2.1,1.7C-350.3,383.6-351,383.2-351.5,382.7z"/>
		<path class="st2" d="M-345.5,383.5v-5.4h1v5.4H-345.5z"/>
		<path class="st2" d="M-342.9,382.7l0.5-0.7c0.4,0.4,1,0.8,1.7,0.8c0.8,0,1.1-0.4,1.1-0.7c0-1.1-3.2-0.4-3.2-2.4
			c0-0.9,0.8-1.6,2-1.6c0.8,0,1.5,0.3,2,0.8l-0.5,0.7c-0.4-0.4-1-0.6-1.6-0.6s-0.9,0.3-0.9,0.7c0,1,3.2,0.4,3.2,2.4
			c0,0.9-0.6,1.7-2.1,1.7C-341.7,383.6-342.5,383.2-342.9,382.7z"/>
		<path class="st2" d="M-334.3,380.8c0-1.6,1.1-2.8,2.8-2.8c1.6,0,2.8,1.2,2.8,2.8c0,1.6-1.2,2.8-2.8,2.8S-334.3,382.4-334.3,380.8z
			 M-329.7,380.8c0-1.1-0.7-2-1.8-2s-1.8,0.8-1.8,2c0,1.1,0.7,2,1.8,2S-329.7,381.9-329.7,380.8z"/>
		<path class="st2" d="M-323.2,383.5l-2.8-3.9v3.9h-1v-5.4h1l2.8,3.8v-3.8h1v5.4H-323.2z"/>
		<path class="st2" d="M-320.4,383.5v-5.4h1v4.6h2.4v0.8H-320.4z"/>
		<path class="st2" d="M-315.4,383.5v-5.4h1v5.4H-315.4z"/>
		<path class="st2" d="M-308.7,383.5l-2.8-3.9v3.9h-1v-5.4h1l2.8,3.8v-3.8h1v5.4H-308.7z"/>
		<path class="st2" d="M-305.8,383.5v-5.4h3.7v0.8h-2.8v1.4h2.7v0.8h-2.7v1.5h2.8v0.8L-305.8,383.5z"/>
	</g>
</g>
</svg>
